<?xml version="1.0" encoding="UTF-8" standalone="no"?>
<svg width="18px" height="18px" viewBox="0 0 18 18" version="1.1" xmlns="http://www.w3.org/2000/svg" xmlns:xlink="http://www.w3.org/1999/xlink" xmlns:sketch="http://www.bohemiancoding.com/sketch/ns">
    <title>email</title>
    <description>Created with Sketch (http://www.bohemiancoding.com/sketch)</description>
    <defs></defs>
    <g id="Page 1" stroke="none" stroke-width="1" fill="none" fill-rule="evenodd">
        <path d="M9,9.5 L13.6,5.5 L4.4,5.5 Z M2.99253976,0 L15.0074602,0 C16.6470745,0 18,1.33980569 18,2.99253976 L18,15.0074602 C18,16.6470745 16.6601943,18 15.0074602,18 L2.99253976,18 C1.35292554,18 0,16.6601943 0,15.0074602 L0,2.99253976 C0,1.35292554 1.33980569,0 2.99253976,0 Z M7.965,9.4 L4.4,12.5 L13.6,12.5 L10.035,9.4 L9,10.3 Z M4,12.1 L7.6,9 L4,5.9 Z M14,12.1 L14,5.9 L10.4,9 Z M14,12.1" id="email" fill="#1C1C1C"></path>
    </g>
</svg>