<?xml version="1.0" encoding="UTF-8" standalone="no"?>
<svg width="18px" height="18px" viewBox="0 0 18 18" version="1.1" xmlns="http://www.w3.org/2000/svg" xmlns:xlink="http://www.w3.org/1999/xlink" xmlns:sketch="http://www.bohemiancoding.com/sketch/ns">
    <title>facebook</title>
    <description>Created with Sketch (http://www.bohemiancoding.com/sketch)</description>
    <defs></defs>
    <g id="Page 1" stroke="none" stroke-width="1" fill="none" fill-rule="evenodd">
        <path d="M15.0074602,0 C16.6470745,0 18,1.33980569 18,2.99253976 L18,15.0074602 C18,16.6470745 16.6601943,18 15.0074602,18 L12.1772973,18 L12.1772973,11.6129077 L14.5054131,11.6129077 L14.8540154,8.92017692 L12.1772973,8.92017692 L12.1772973,7.20103846 C12.1772973,6.42143077 12.3946178,5.89015385 13.5168726,5.89015385 L14.9482548,5.88953077 L14.9482548,3.48113077 C14.7007026,3.44831538 13.8510193,3.375 12.8624787,3.375 C10.7987336,3.375 9.38583782,4.62987692 9.38583782,6.93436154 L9.38583782,8.92017692 L7.05174515,8.92017692 L7.05174515,11.6129077 L9.38583782,11.6129077 L9.38583782,18 L2.99253976,18 C1.35292554,18 0,16.6601943 0,15.0074602 L0,2.99253976 C0,1.35292554 1.33980569,0 2.99253976,0 L15.0074602,0 Z M15.0074602,0" id="facebook" fill="#1C1C1C"></path>
    </g>
</svg>