<?xml version="1.0" encoding="UTF-8" standalone="no"?>
<svg width="18px" height="18px" viewBox="0 0 18 18" version="1.1" xmlns="http://www.w3.org/2000/svg" xmlns:xlink="http://www.w3.org/1999/xlink" xmlns:sketch="http://www.bohemiancoding.com/sketch/ns">
    <title>instagram</title>
    <description>Created with Sketch (http://www.bohemiancoding.com/sketch)</description>
    <defs></defs>
    <g id="Page 1" stroke="none" stroke-width="1" fill="none" fill-rule="evenodd">
        <path d="M18,15.0074602 C18,16.6470745 16.6601943,18 15.0074602,18 L2.99253976,18 C1.35292554,18 0,16.6601943 0,15.0074602 L0,7 L4.41604364,7 C4.14844883,7.61245621 4,8.28889206 4,9 C4,11.7614239 6.23857611,14 9,14 C11.7614239,14 14,11.7614239 14,9 C14,8.28889206 13.8515512,7.61245621 13.5839564,7 L18,7 L18,15.0074602 Z M15.0074602,0 C16.6470745,0 18,1.33980569 18,2.99253976 L18,6 L13.0003663,6 C12.0881525,4.78554923 10.6358137,4 9,4 C7.36418627,4 5.91184751,4.78554923 4.99963373,6 L0,6 L0,2.99253976 C0,1.35292554 1.33980569,0 2.99253976,0 L15.0074602,0 Z M13,1.99895656 L13,3.00104344 C13,3.55275191 13.4426603,4 13.9989566,4 L15.0010434,4 C15.5527519,4 16,3.55733967 16,3.00104344 L16,1.99895656 C16,1.44724809 15.5573397,1 15.0010434,1 L13.9989566,1 C13.4472481,1 13,1.44266033 13,1.99895656 Z M5,9 C5,6.79086089 6.79086089,5 9,5 C11.2091391,5 13,6.79086089 13,9 C13,11.2091391 11.2091391,13 9,13 C6.79086089,13 5,11.2091391 5,9 Z M5,9" id="instagram" fill="#1C1C1C"></path>
    </g>
</svg>