<?xml version="1.0" encoding="UTF-8" standalone="no"?>
<svg width="14px" height="14px" viewBox="0 0 14 14" version="1.1" xmlns="http://www.w3.org/2000/svg" xmlns:xlink="http://www.w3.org/1999/xlink" xmlns:sketch="http://www.bohemiancoding.com/sketch/ns">
    <title>permalink</title>
    <description>Created with Sketch (http://www.bohemiancoding.com/sketch)</description>
    <defs></defs>
    <g id="Page 1" stroke="none" stroke-width="1" fill="none" fill-rule="evenodd">
        <g id="Layer_1" transform="translate(-1.000000, -2.000000)" fill="#8B8B8B">
            <g id="g3016" transform="translate(8.147241, 9.031744) rotate(-45.000000) translate(-8.147241, -9.031744) translate(0.647241, 5.031744)">
                <path d="M11.0261209,0.141074242 L8.7845566,0.141074242 C8.59100936,0.141074242 8.40086809,0.155846414 8.21516936,0.184356706 C8.17474213,0.190561019 8.13505532,0.1992766 8.09507234,0.206662686 C8.78307574,0.600488791 9.34920511,1.18236465 9.7220834,1.88227015 L9.90541277,1.88227015 L11.1413311,1.88227015 C12.2256102,1.88227015 13.1044953,2.759294 13.1044953,3.84091244 C13.1044953,4.92238315 12.2254621,5.799407 11.1413311,5.799407 L9.73215319,5.799407 L9.44220255,5.799407 L9.16010043,5.799407 L9.15921191,5.799407 L8.68963404,5.799407 C8.20021277,5.799407 7.75314383,5.62036827 7.40929021,5.32492483 L7.40884596,5.325368 C7.40884596,5.32507255 7.40869787,5.32507255 7.40854979,5.32492483 C7.33539574,5.26376804 7.27734638,5.20645201 7.22995915,5.1553403 C7.12629957,5.0424809 7.08024511,4.9628589 7.08024511,4.9628589 C7.08039319,4.96256345 7.08054128,4.96256345 7.08054128,4.96241573 C7.08039319,4.96226801 7.08024511,4.96212029 7.08024511,4.96197257 C6.85737702,4.64437087 6.72646979,4.25793085 6.72646979,3.84091244 C6.72646979,3.43526859 6.84997277,3.05857821 7.06158638,2.74585133 C7.06765787,2.73698802 7.0743217,2.72856789 7.08039319,2.7198523 C6.82331745,2.50225821 6.49131064,2.37019499 6.12835404,2.37019499 L5.38185702,2.37019499 C5.18564426,2.82104168 5.07576511,3.31797755 5.07576511,3.84091244 C5.07576511,4.36355188 5.18490383,4.86063547 5.38096851,5.31148216 C5.41710128,5.39435404 5.45634383,5.47560099 5.49825191,5.55537072 C5.53334809,5.62184549 5.56962894,5.68772938 5.6087234,5.75213605 C5.61168511,5.75701086 5.61405447,5.76085163 5.61672,5.76513556 C5.62368,5.77680557 5.63138043,5.78758926 5.63848851,5.79925928 C6.05194213,6.45854131 6.66738383,6.9780786 7.39892426,7.27248799 C7.48896,7.30867981 7.5804766,7.34221264 7.67377021,7.37131382 C7.67880511,7.37293876 7.68384,7.3745637 7.68902298,7.37589319 C7.70457191,7.38091573 7.72041702,7.38490422 7.73611404,7.38933587 C7.77609702,7.4011536 7.81622809,7.41311906 7.8568034,7.42360731 C7.85739574,7.42360731 7.85769191,7.42390275 7.85828426,7.42405047 C8.15445447,7.49983171 8.46484085,7.54030746 8.78440851,7.54030746 L11.0259728,7.54030746 C13.074286,7.54030746 14.7346162,5.88390382 14.7346162,3.84076471 C14.7347643,1.79762561 13.074434,0.141074242 11.0261209,0.141074242 L11.0261209,0.141074242 Z M11.0261209,0.141074242" id="path17"></path>
                <path d="M3.78238979,7.54045519 L6.02395404,7.54045519 C6.21764936,7.54045519 6.40779064,7.52553529 6.59348936,7.497025 C6.6339166,7.49082069 6.67375149,7.48225283 6.71358638,7.47471902 C6.02558298,7.08104064 5.45930553,6.49916478 5.08657532,5.79925928 L4.90309787,5.79925928 L3.66717957,5.79925928 C2.58290043,5.79925928 1.70401532,4.92238315 1.70401532,3.84061699 C1.70401532,2.75899856 2.58290043,1.88227015 3.66717957,1.88227015 L5.07635745,1.88227015 L5.36616,1.88227015 L5.64826213,1.88227015 L5.64929872,1.88227015 L6.11872851,1.88227015 C6.6080017,1.88227015 7.05507064,2.06130888 7.39892426,2.35675232 L7.39922043,2.35630915 C7.39936851,2.35645687 7.39936851,2.3566046 7.3995166,2.35675232 C7.47281872,2.41776139 7.53086809,2.47507741 7.57810723,2.52633685 C7.68191489,2.6389008 7.72782128,2.71867053 7.72782128,2.71867053 C7.72782128,2.71881825 7.72767319,2.71896597 7.72752511,2.7191137 C7.72767319,2.7191137 7.72782128,2.71926142 7.72796936,2.71955686 C7.95083745,3.03715856 8.08189277,3.42359858 8.08189277,3.84046927 C8.08189277,4.24611311 7.9582417,4.62295122 7.74662809,4.93538266 C7.7405566,4.9445414 7.73404085,4.95281382 7.72782128,4.96138168 C7.98489702,5.1791235 8.31705191,5.31133443 8.67986043,5.31133443 L9.42650553,5.31133443 C9.62257021,4.86034002 9.73230128,4.36340416 9.73230128,3.84046927 C9.73230128,3.3176821 9.62316255,2.82074624 9.42709787,2.36989955 C9.39096511,2.28702767 9.35172255,2.20578072 9.30981447,2.12601099 C9.2747183,2.0593885 9.23843745,1.99335689 9.19934298,1.92924566 C9.19638128,1.92437084 9.19401191,1.92038236 9.19149447,1.91609843 C9.18438638,1.90457613 9.17683404,1.893497 9.16972596,1.88212243 C8.75627234,1.2228404 8.14068255,0.703155386 7.40929021,0.40889372 C7.31925447,0.372701899 7.22773787,0.33931679 7.13444426,0.309920168 C7.12940936,0.308295229 7.12437447,0.306818012 7.11919149,0.305193073 C7.10364255,0.300465978 7.08779745,0.296477492 7.07210043,0.29204584 C7.03211745,0.280080381 6.99198638,0.268114921 6.95126298,0.257774401 C6.95067064,0.257626679 6.95037447,0.257626679 6.94993021,0.257478958 C6.65376,0.181402272 6.3435217,0.141074242 6.02365787,0.141074242 L3.78238979,0.141074242 C1.7340766,0.141074242 0.073746383,1.79733016 0.073746383,3.84061699 C0.073746383,5.88405154 1.7340766,7.54045519 3.78238979,7.54045519 L3.78238979,7.54045519 Z M3.78238979,7.54045519" id="path19"></path>
            </g>
        </g>
    </g>
</svg>