<?xml version="1.0" encoding="UTF-8" standalone="no"?>
<svg width="10px" height="10px" viewBox="0 0 10 10" version="1.1" xmlns="http://www.w3.org/2000/svg" xmlns:xlink="http://www.w3.org/1999/xlink" xmlns:sketch="http://www.bohemiancoding.com/sketch/ns">
    <title>Layer_1</title>
    <description>Created with Sketch (http://www.bohemiancoding.com/sketch)</description>
    <defs></defs>
    <g id="Page 1" stroke="none" stroke-width="1" fill="none" fill-rule="evenodd">
        <g id="Layer_1" fill="#B0B0B0">
            <path d="M9.85968116,8.68397101 C9.93356522,8.7604058 9.97176812,8.85721739 9.97176812,8.9782029 C9.97176812,9.04443478 9.93356522,9.1335942 9.85968116,9.24695652 C9.78452174,9.35904348 9.69026087,9.47113043 9.57817391,9.58069565 C9.46608696,9.69026087 9.354,9.78449275 9.24443478,9.86092754 C9.13362319,9.93863768 9.04573913,9.97684058 8.9782029,9.97684058 C8.85973913,9.97684058 8.76037681,9.93736232 8.68524638,9.85837681 L6.4433913,7.62289855 C6.10202899,7.84327536 5.73771014,8.01394203 5.35049275,8.13113043 C4.96327536,8.25086957 4.56649275,8.30944928 4.15823188,8.30944928 C3.58695652,8.30944928 3.05069565,8.20246377 2.54753623,7.98591304 C2.04376812,7.76936232 1.60176812,7.47130435 1.22089855,7.09171014 C0.838753623,6.7133913 0.541333333,6.27266667 0.324782609,5.76762319 C0.10826087,5.2657971 0,4.72826087 0,4.15698551 C0,3.58823188 0.10826087,3.04944928 0.324811594,2.54756522 C0.541362319,2.04252174 0.838782609,1.6017971 1.22092754,1.2222029 C1.6017971,0.843884058 2.04252174,0.545188406 2.54501449,0.327362319 C3.0455942,0.109536232 3.5844058,0 4.15823188,0 C4.72950725,0 5.26452174,0.109536232 5.76510145,0.327362319 C6.26762319,0.545188406 6.70834783,0.843884058 7.09049275,1.2222029 C7.47136232,1.6017971 7.76942029,2.04252174 7.98597101,2.54756522 C8.20252174,3.04942029 8.31078261,3.58823188 8.31078261,4.15698551 C8.31078261,4.56649275 8.25092754,4.96455072 8.13246377,5.35307246 C8.014,5.74284058 7.84457971,6.10588406 7.62423188,6.44214493 L9.85968116,8.68397101 L9.85968116,8.68397101 Z M1.66037681,4.15698551 C1.66037681,4.50791304 1.72724638,4.834 1.85971014,5.13524638 C1.99408696,5.43652174 2.17307246,5.69889855 2.39724638,5.9217971 C2.62205797,6.14342029 2.88637681,6.32052174 3.19017391,6.45234783 C3.4946087,6.58353623 3.81623188,6.64852174 4.15823188,6.64852174 C4.50023188,6.64852174 4.8206087,6.58356522 5.12249275,6.45234783 C5.42504348,6.32052174 5.68805797,6.14344928 5.91286957,5.9217971 C6.13834783,5.69892754 6.3153913,5.43652174 6.44976812,5.13524638 C6.58350725,4.834 6.64973913,4.50791304 6.64973913,4.15698551 C6.64973913,3.81498551 6.58350725,3.49397101 6.44976812,3.19272464 C6.31536232,2.8902029 6.13834783,2.62524638 5.91286957,2.39852174 C5.68805797,2.17307246 5.42504348,1.99408696 5.12249275,1.86226087 C4.8206087,1.73234783 4.50026087,1.66544928 4.15823188,1.66544928 C3.8162029,1.66544928 3.49457971,1.73231884 3.19017391,1.86226087 C2.88637681,1.99408696 2.62205797,2.17307246 2.39724638,2.39852174 C2.17307246,2.62524638 1.99408696,2.8902029 1.85971014,3.19272464 C1.72724638,3.49397101 1.66037681,3.81495652 1.66037681,4.15698551 L1.66037681,4.15698551 Z M4.15823188,2.58385507 C4.24037681,2.58385507 4.31362319,2.6137971 4.37350725,2.67365217 C4.43336232,2.73542029 4.46330435,2.81057971 4.46330435,2.90228986 C4.46330435,2.98571014 4.43336232,3.05704348 4.37350725,3.11756522 C4.31365217,3.17869565 4.2404058,3.20863768 4.15823188,3.20863768 C3.89582609,3.20863768 3.67165217,3.30098551 3.48631884,3.48249275 C3.30289855,3.66655072 3.20863768,3.892 3.20863768,4.15695652 C3.20863768,4.24165217 3.17869565,4.31234783 3.11884058,4.37350725 C3.05771014,4.43336232 2.98701449,4.46202899 2.90356522,4.46202899 C2.80675362,4.46202899 2.72968116,4.43336232 2.67110145,4.37350725 C2.61252174,4.31237681 2.58513043,4.24168116 2.58513043,4.15695652 C2.58513043,3.94550725 2.6246087,3.74489855 2.70678261,3.55191304 C2.78768116,3.35956522 2.89976812,3.19142029 3.04434783,3.0455942 C3.18765217,2.90101449 3.35324638,2.78573913 3.5424058,2.70614493 C3.73281159,2.62397101 3.93788406,2.58385507 4.15823188,2.58385507 L4.15823188,2.58385507 Z M4.15823188,2.58385507" id="Shape"></path>
        </g>
    </g>
</svg>