<?xml version="1.0" encoding="UTF-8" standalone="no"?>
<svg width="18px" height="18px" viewBox="0 0 18 18" version="1.1" xmlns="http://www.w3.org/2000/svg" xmlns:xlink="http://www.w3.org/1999/xlink" xmlns:sketch="http://www.bohemiancoding.com/sketch/ns">
    <title>twitter</title>
    <description>Created with Sketch (http://www.bohemiancoding.com/sketch)</description>
    <defs></defs>
    <g id="Page 1" stroke="none" stroke-width="1" fill="none" fill-rule="evenodd">
        <path d="M18,3.27560663 C17.33778,3.57683221 16.6259699,3.78032559 15.8790599,3.87187454 C16.6413599,3.4032399 17.2269899,2.66115814 17.50275,1.77686174 C16.7891399,2.21088867 15.9988499,2.52595732 15.1576199,2.69576586 C14.4840598,1.95977506 13.5242998,1.5 12.4621197,1.5 C10.4227197,1.5 8.76916752,3.19540902 8.76916752,5.28663804 C8.76916752,5.58343383 8.80181952,5.8724775 8.86479252,6.14961607 C5.79564838,5.99171264 3.07448025,4.48410813 1.25314116,2.19307722 C0.935225148,2.75233795 0.753116435,3.40287075 0.753116435,4.09687085 C0.753116435,5.4106721 1.40505217,6.56970764 2.39600622,7.24875723 C1.79064819,7.2291 1.22119116,7.05873777 0.723339035,6.77513905 C0.722988035,6.79092014 0.722988035,6.8067013 0.722988035,6.82275927 C0.722988035,8.65745741 1.9959571,10.1878753 3.68529319,10.5358628 C3.37545917,10.6223821 3.04920915,10.6687103 2.71241114,10.6687103 C2.47444212,10.6687103 2.24310611,10.6449187 2.0175841,10.60075 C2.48751912,12.105106 3.85133419,13.200011 5.46732027,13.2304382 C4.20345921,14.2461701 2.61116113,14.851556 0.880945242,14.851556 C0.582855328,14.851556 0.288879314,14.8335692 0,14.7986015 C1.63427408,15.8729875 3.57543018,16.5 5.66089228,16.5 C12.4534806,16.5 16.1680508,10.7298506 16.1680508,5.72574075 C16.1680508,5.56156175 16.1643608,5.39830561 16.1572508,5.23588005 C16.8788699,4.70190604 17.50491,4.03503839 18,3.27560663" id="twitter" fill="#1C1C1C"></path>
    </g>
</svg>