<?xml version="1.0" encoding="UTF-8" standalone="no"?>
<svg width="18px" height="18px" viewBox="0 0 18 18" version="1.1" xmlns="http://www.w3.org/2000/svg" xmlns:xlink="http://www.w3.org/1999/xlink" xmlns:sketch="http://www.bohemiancoding.com/sketch/ns">
    <title>twitter-boxed</title>
    <description>Created with Sketch (http://www.bohemiancoding.com/sketch)</description>
    <defs></defs>
    <g id="Page 1" stroke="none" stroke-width="1" fill="none" fill-rule="evenodd">
        <path d="M15.0074602,0 C16.6470745,0 18,1.33980569 18,2.99253976 L18,15.0074602 C18,16.6470745 16.6601943,18 15.0074602,18 L2.99253976,18 C1.35292554,18 0,16.6601943 0,15.0074602 L0,2.99253976 C0,1.35292554 1.33980569,0 2.99253976,0 L15.0074602,0 Z M13.7038699,5.92312472 C14.16972,5.64194394 14.527605,5.19669488 14.696125,4.66611705 C14.26003,4.9265332 13.777075,5.11557439 13.2629899,5.21745952 C12.8513699,4.77586504 12.2648499,4.5 11.6157398,4.5 C10.3694398,4.5 9.3589357,5.51724541 9.3589357,6.77198282 C9.3589357,6.9500603 9.3788897,7.1234865 9.4173732,7.28976964 C7.54178512,7.19502758 5.87884904,6.29046488 4.76580849,4.91584633 C4.57152648,5.25140277 4.46023782,5.64172245 4.46023782,6.05812251 C4.46023782,6.84640326 4.85864299,7.54182458 5.46422602,7.94925434 C5.094285,7.93746 4.74628349,7.83524266 4.44204052,7.66508343 L4.44182602,7.69365556 C4.44182602,8.79447445 5.21975156,9.71272518 6.25212361,9.92151769 C6.0627806,9.97342928 5.86340559,10.0012262 5.65758458,10.0012262 C5.51215908,10.0012262 5.37078707,9.98695121 5.23296806,9.96044997 C5.52015058,10.8630636 6.35359312,11.5200066 7.34114017,11.5382629 C6.56878063,12.1477021 5.59570958,12.5109336 4.53835543,12.5109336 C4.35618937,12.5109336 4.17653736,12.5001415 4,12.4791609 C4.99872305,13.1237925 6.18498511,13.5 7.45943417,13.5 C11.6104604,13.5 13.8804755,10.0379104 13.8804755,7.03544445 C13.8804755,6.93693705 13.8782205,6.83898336 13.8738755,6.74152803 C14.314865,6.42114362 14.697445,6.02102304 15,5.56536398 C14.59531,5.74609932 14.160315,5.86819535 13.7038699,5.92312472 Z M13.7038699,5.92312472" id="twitter-boxed" fill="#1C1C1C"></path>
    </g>
</svg>